<?xml version="1.0" encoding="utf-8"?>
<!-- Generator: Adobe Illustrator 21.1.0, SVG Export Plug-In . SVG Version: 6.00 Build 0)  -->
<svg version="1.1"
	 id="svg2" xmlns:cc="http://creativecommons.org/ns#" xmlns:dc="http://purl.org/dc/elements/1.1/" xmlns:rdf="http://www.w3.org/1999/02/22-rdf-syntax-ns#" xmlns:svg="http://www.w3.org/2000/svg"
	 xmlns="http://www.w3.org/2000/svg" xmlns:xlink="http://www.w3.org/1999/xlink" x="0px" y="0px" viewBox="0 0 325.1 91.8"
	 style="enable-background:new 0 0 325.1 91.8;" xml:space="preserve">
<style type="text/css">
	.st0{fill:#FFFFFF;stroke:#FFFFFF;stroke-miterlimit:10;}
</style>
<g id="g10" transform="matrix(1.3333333,0,0,-1.3333333,0,793.70667)">
	<g id="g12" transform="scale(0.1)">
		<path id="path14" class="st0" d="M354.8,5622.9c-5.2,0-9.4,4.2-9.4,9.3V5920h-59.2v-270.2c0-5.2-4.2-9.3-9.3-9.3H91
			c-5.2,0-9.3,4.2-9.3,9.3V5920H22.4v-287.8c0-5.2-4.2-9.3-9.4-9.3c-5.2,0-9.3,4.2-9.3,9.3v297.1c0,5.2,4.2,9.4,9.3,9.4H91
			c5.2,0,9.4-4.2,9.4-9.4v-270.2h167.2v270.2c0,5.2,4.2,9.4,9.4,9.4h77.9c5.2,0,9.3-4.2,9.3-9.4v-297.1
			C364.1,5627.1,360,5622.9,354.8,5622.9"/>
		<path id="path16" class="st0" d="M354.8,5272h-77.9c-5.2,0-9.4,4.2-9.4,9.3v281.2H100.4v-281.2c0-5.2-4.2-9.3-9.4-9.3H13.1
			c-5.2,0-9.3,4.2-9.3,9.3v311.8c0,5.2,4.2,9.3,9.3,9.3c5.2,0,9.4-4.2,9.4-9.3v-302.4h59.2v281.2c0,5.2,4.2,9.4,9.3,9.4h185.9
			c5.2,0,9.3-4.2,9.3-9.4v-281.2h59.2v302.4c0,5.2,4.2,9.3,9.4,9.3c5.2,0,9.3-4.2,9.3-9.3v-311.8C364.1,5276.2,360,5272,354.8,5272"
			/>
		<path id="path18" class="st0" d="M621.8,5267.8c-46.8,0-90.4,16.1-122.6,45.2c-36.5,33-55.8,80.2-55.8,136.6v292.9
			c0,5.2,4.2,9.4,9.3,9.4c5.2,0,9.4-4.2,9.4-9.4v-292.9c0-50.9,17.2-93.3,49.6-122.7c28.8-26.1,67.9-40.4,110.1-40.4
			c42.7,0,82.6,14.6,112.4,41.1c33.3,29.7,50.9,71.9,50.9,122.1v292.9c0,5.2,4.2,9.4,9.3,9.4c5.2,0,9.4-4.2,9.4-9.4v-292.9
			C803.8,5330.2,712.3,5267.8,621.8,5267.8"/>
		<path id="path20" class="st0" d="M604.5,5344.8c-0.6,0-1.2,0.1-1.8,0.2c-49.4,9.8-81.3,50.9-81.3,104.6v468.8h-59.2v-137.1
			c0-5.2-4.2-9.3-9.4-9.3c-5.2,0-9.3,4.2-9.3,9.3v146.4c0,5.2,4.2,9.4,9.3,9.4h77.9c5.2,0,9.3-4.2,9.3-9.4v-478.2
			c0-54,34.2-80,66.2-86.3c5.1-1,8.4-5.9,7.4-11C612.7,5347.8,608.8,5344.8,604.5,5344.8"/>
		<path id="path22" class="st0" d="M642.8,5344.7c-4.4,0-8.3,3.1-9.2,7.6c-1,5.1,2.3,10,7.4,11c32,6.3,66.2,32.3,66.2,86.3v478.2
			c0,5.2,4.2,9.4,9.4,9.4h77.9c5.2,0,9.4-4.2,9.4-9.4v-146.4c0-5.2-4.2-9.3-9.4-9.3c-5.2,0-9.3,4.2-9.3,9.3v137.1h-59.2v-468.8
			c0-53.9-31.9-95-81.3-104.7C644,5344.8,643.4,5344.7,642.8,5344.7"/>
		<path id="path24" class="st0" d="M1053.6,5565.1c-1.6,0-3.1,0.4-4.6,1.2c-152.8,86.3-169.2,135.5-174.7,191c0,0.1,0,0.3,0,0.4
			c-2.7,50.2,14.8,97.8,49.1,134c35,36.9,83.4,57.3,136.4,57.3c102.1,0,185.3-83.7,185.3-186.6c0-5.2-4.2-9.4-9.4-9.4h-82.3
			c-5,0-9.2,4-9.3,9c-1.7,50.6-35.5,84.5-84.2,84.5c-25.7,0-49.4-9.6-65-26.4c-14.2-15.3-20.9-35.1-19.3-57.1
			c1.9-37.8,32.7-59.5,83.2-90.6c4.4-2.7,5.8-8.5,3-12.9c-2.7-4.4-8.5-5.8-12.9-3c-54,33.4-89.6,58.8-92,105.4
			c-2,26.8,6.6,52.1,24.2,71c19.1,20.6,47.8,32.4,78.7,32.4c55.6,0,96.6-38,102.3-93.6h64c-4.8,88.2-77.6,158.5-166.3,158.5
			c-47.8,0-91.4-18.3-122.8-51.4c-30.7-32.4-46.4-75-44-120c5.1-49.9,20.6-94.6,165.3-176.4c4.5-2.5,6.1-8.2,3.5-12.7
			C1060,5566.8,1056.9,5565.1,1053.6,5565.1"/>
		<path id="path26" class="st0" d="M1070,5267.8c-103.9,0-188.4,85.9-188.4,191.5c0,5.2,4.2,9.3,9.4,9.3h83.8c5.1,0,9.2-4,9.3-9.1
			c1.5-49.7,38.4-87.1,85.9-87.1c26,0,50,9.8,65.9,26.9c14.7,15.8,21.6,36.3,20,59.3c-1.9,38.1-29.4,58.6-74.4,87.8
			c-4.3,2.8-5.6,8.6-2.8,12.9c2.8,4.3,8.6,5.6,12.9,2.8c48.6-31.5,80.6-55.6,82.9-102.3c2-27.6-6.9-53.7-24.9-73.1
			c-19.4-20.9-48.5-32.9-79.6-32.9c-54.9,0-98.2,40.8-104,96.2h-65.5c4.8-91,78.9-163.5,169.4-163.5c48.3,0,92.5,18.6,124.4,52.3
			c31.8,33.5,47.9,77.6,45.5,124.2c-5,49.9-20.5,97.5-157.9,174.5c-4.5,2.5-6.1,8.2-3.6,12.7c2.5,4.5,8.2,6.1,12.7,3.6
			c131.6-73.7,161-125.2,167.4-189.2c0-0.1,0-0.3,0-0.4c2.7-51.1-15.7-101.5-50.6-138.3C1172.5,5288.4,1123.4,5267.8,1070,5267.8"/>
		<path id="path28" class="st0" d="M1667.9,5270.5h-341.7c-5.2,0-9.4,4.2-9.4,9.4v309c0,5.2,4.2,9.4,9.4,9.4s9.3-4.2,9.3-9.4v-299.6
			h323v59.2h-254.4c-5.2,0-9.4,4.2-9.4,9.4v212.6c0,5.2,4.2,9.3,9.4,9.3h130.5v9.1c0,5.2,4.2,9.4,9.3,9.4c5.2,0,9.4-4.2,9.4-9.4
			v-18.5c0-5.2-4.2-9.4-9.4-9.4h-130.5v-193.9h254.4c5.2,0,9.4-4.2,9.4-9.3v-77.9C1677.3,5274.7,1673.1,5270.5,1667.9,5270.5"/>
		<path id="path30" class="st0" d="M1544,5618.6c-5.2,0-9.3,4.2-9.3,9.4v11h-130.5c-5.2,0-9.4,4.2-9.4,9.3v201.6
			c0,5.2,4.2,9.3,9.4,9.3h254.4v59.2h-323v-290.5c0-5.2-4.2-9.4-9.3-9.4c-5.2,0-9.4,4.2-9.4,9.4v299.8c0,5.2,4.2,9.4,9.4,9.4h341.7
			c5.2,0,9.4-4.2,9.4-9.4v-77.9c0-5.2-4.2-9.4-9.4-9.4h-254.4v-182.9H1544c5.2,0,9.4-4.2,9.4-9.4v-20.3
			C1553.3,5622.8,1549.2,5618.6,1544,5618.6"/>
		<path id="path32" class="st0" d="M1894.3,5272h-20.6c-5.2,0-9.4,4.2-9.4,9.3v560.7h-121.6c-5.2,0-9.3,4.2-9.3,9.3v77.9
			c0,5.2,4.2,9.4,9.3,9.4h151.5c5.2,0,9.4-4.2,9.4-9.4s-4.2-9.3-9.4-9.3h-142.1v-59.2h121.6c5.2,0,9.4-4.2,9.4-9.4v-560.7h11.2
			c5.2,0,9.4-4.2,9.4-9.4C1903.6,5276.2,1899.4,5272,1894.3,5272"/>
		<path id="path34" class="st0" d="M1953.5,5272h-19.9c-5.2,0-9.4,4.2-9.4,9.3c0,5.2,4.2,9.4,9.4,9.4h10.5v560.7
			c0,5.2,4.2,9.4,9.3,9.4h121.6v59.2h-141.4c-5.2,0-9.4,4.2-9.4,9.3s4.2,9.4,9.4,9.4h150.8c5.2,0,9.3-4.2,9.3-9.4v-77.9
			c0-5.2-4.2-9.3-9.3-9.3h-121.6v-560.7C1962.9,5276.2,1958.7,5272,1953.5,5272"/>
		<path id="path36" class="st0" d="M2245.4,5272c-2.4,0-4.8,0.9-6.6,2.7l-179.9,179.9c-2.7,2.7-3.5,6.7-2,10.2
			c1.5,3.5,4.9,5.8,8.6,5.8H2226c5.2,0,9.4-4.2,9.4-9.4c0-5.2-4.2-9.3-9.4-9.3h-137.9l157.3-157.3l157.3,157.3h-137.2
			c-5.2,0-9.4,4.2-9.4,9.3s4.2,9.4,9.4,9.4h159.8c3.8,0,7.2-2.3,8.6-5.8c1.4-3.5,0.6-7.5-2-10.2L2252,5274.8
			C2250.2,5272.9,2247.8,5272,2245.4,5272"/>
	</g>
</g>
</svg>
