<?xml version="1.0" encoding="utf-8"?>
<!-- Generator: Adobe Illustrator 21.1.0, SVG Export Plug-In . SVG Version: 6.00 Build 0)  -->
<svg version="1.1"
	 id="svg2" xmlns:cc="http://creativecommons.org/ns#" xmlns:dc="http://purl.org/dc/elements/1.1/" xmlns:rdf="http://www.w3.org/1999/02/22-rdf-syntax-ns#" xmlns:svg="http://www.w3.org/2000/svg"
	 xmlns="http://www.w3.org/2000/svg" xmlns:xlink="http://www.w3.org/1999/xlink" x="0px" y="0px" viewBox="0 0 50.6 26.6"
	 style="enable-background:new 0 0 50.6 26.6;" xml:space="preserve">
<style type="text/css">
	.st0{fill:#FFFFFF;}
</style>
<path id="path36" class="st0" d="M25.3,26.6c-0.3,0-0.6-0.1-0.9-0.4l-24-24C0,1.8-0.1,1.3,0.1,0.8S0.7,0,1.3,0h21.4
	c0.7,0,1.2,0.6,1.2,1.2c0,0.7-0.6,1.2-1.2,1.2H4.3l21,21l21-21H28c-0.7,0-1.2-0.6-1.2-1.2S27.4,0,28,0h21.3c0.5,0,1,0.3,1.2,0.8
	s0.1,1-0.3,1.4l-24,24C25.9,26.5,25.6,26.6,25.3,26.6"/>
</svg>
